<mxfile host="Electron" modified="2023-05-30T16:44:38.868Z" agent="Mozilla/5.0 (Macintosh; Intel Mac OS X 10_15_7) AppleWebKit/537.36 (KHTML, like Gecko) draw.io/21.2.8 Chrome/112.0.5615.165 Electron/24.2.0 Safari/537.36" etag="luzsqARv081jjAc0VjbO" version="21.2.8" type="device">
  <diagram name="Страница 1" id="koVgPimv0VE1TFkT0X7F">
    <mxGraphModel dx="574" dy="2298" grid="1" gridSize="10" guides="1" tooltips="1" connect="1" arrows="1" fold="1" page="1" pageScale="1" pageWidth="827" pageHeight="1169" math="0" shadow="0">
      <root>
        <mxCell id="0" />
        <mxCell id="1" parent="0" />
        <mxCell id="6jMr6Txyks8FX9mSCWgc-61" value="" style="rounded=1;whiteSpace=wrap;html=1;fillColor=#bac8d3;strokeColor=#23445d;" parent="1" vertex="1">
          <mxGeometry x="2280" y="1160" width="840" height="400" as="geometry" />
        </mxCell>
        <mxCell id="6jMr6Txyks8FX9mSCWgc-57" value="" style="rounded=1;whiteSpace=wrap;html=1;fillColor=#d0cee2;strokeColor=#56517e;" parent="1" vertex="1">
          <mxGeometry x="2920.25" y="1720" width="199.75" height="200" as="geometry" />
        </mxCell>
        <mxCell id="6jMr6Txyks8FX9mSCWgc-54" value="" style="rounded=1;whiteSpace=wrap;html=1;fillColor=#d5e8d4;strokeColor=#82b366;" parent="1" vertex="1">
          <mxGeometry x="2280" y="840" width="199.75" height="200" as="geometry" />
        </mxCell>
        <mxCell id="6jMr6Txyks8FX9mSCWgc-51" value="" style="rounded=1;whiteSpace=wrap;html=1;fillColor=#bac8d3;strokeColor=#23445d;" parent="1" vertex="1">
          <mxGeometry x="2599.63" y="1720" width="200.75" height="200" as="geometry" />
        </mxCell>
        <mxCell id="6jMr6Txyks8FX9mSCWgc-35" value="" style="rounded=0;whiteSpace=wrap;html=1;fillColor=#e1d5e7;strokeColor=#9673a6;" parent="1" vertex="1">
          <mxGeometry x="2320" y="220" width="160" height="400" as="geometry" />
        </mxCell>
        <mxCell id="43l0I3eRNdwmV9ZVuamb-2" value="Найм персонала" style="shape=note;size=20;whiteSpace=wrap;html=1;fillColor=#d5e8d4;strokeColor=#82b366;" parent="1" vertex="1">
          <mxGeometry x="1859.88" y="240" width="100" height="100" as="geometry" />
        </mxCell>
        <mxCell id="43l0I3eRNdwmV9ZVuamb-10" value="Поддомены" style="text;html=1;strokeColor=none;fillColor=none;align=center;verticalAlign=middle;whiteSpace=wrap;rounded=0;fontSize=16;" parent="1" vertex="1">
          <mxGeometry x="1988.9399999999998" y="170" width="99.5" height="30" as="geometry" />
        </mxCell>
        <mxCell id="43l0I3eRNdwmV9ZVuamb-13" value="High" style="text;html=1;strokeColor=none;fillColor=none;align=center;verticalAlign=middle;whiteSpace=wrap;rounded=0;" parent="1" vertex="1">
          <mxGeometry x="2601.75" y="210" width="60" height="30" as="geometry" />
        </mxCell>
        <mxCell id="43l0I3eRNdwmV9ZVuamb-14" value="High" style="text;html=1;strokeColor=none;fillColor=none;align=center;verticalAlign=middle;whiteSpace=wrap;rounded=0;" parent="1" vertex="1">
          <mxGeometry x="3109.5" y="690" width="60" height="30" as="geometry" />
        </mxCell>
        <mxCell id="43l0I3eRNdwmV9ZVuamb-16" value="Low" style="text;html=1;strokeColor=none;fillColor=none;align=center;verticalAlign=middle;whiteSpace=wrap;rounded=0;" parent="1" vertex="1">
          <mxGeometry x="2599.63" y="660" width="60" height="30" as="geometry" />
        </mxCell>
        <mxCell id="43l0I3eRNdwmV9ZVuamb-17" value="Model Complexity" style="text;html=1;strokeColor=none;fillColor=none;align=center;verticalAlign=middle;whiteSpace=wrap;rounded=0;fontSize=16;fontStyle=1" parent="1" vertex="1">
          <mxGeometry x="2545.25" y="430" width="110" height="40" as="geometry" />
        </mxCell>
        <mxCell id="43l0I3eRNdwmV9ZVuamb-18" value="Business Differentiation" style="text;html=1;strokeColor=none;fillColor=none;align=center;verticalAlign=middle;whiteSpace=wrap;rounded=0;fontSize=16;fontStyle=1" parent="1" vertex="1">
          <mxGeometry x="2833.75" y="710" width="120" height="40" as="geometry" />
        </mxCell>
        <mxCell id="43l0I3eRNdwmV9ZVuamb-19" value="&lt;br&gt;&lt;br&gt;&lt;br&gt;G&lt;br&gt;E&lt;br&gt;N&lt;br&gt;E&lt;br&gt;R&lt;br&gt;I&lt;br&gt;C&lt;br&gt;&lt;br&gt;" style="rounded=0;whiteSpace=wrap;html=1;fillColor=#bac8d3;strokeColor=none;fontSize=18;fontColor=#808080;fontStyle=1;verticalAlign=middle;" parent="1" vertex="1">
          <mxGeometry x="2661.75" y="210" width="157.75" height="480" as="geometry" />
        </mxCell>
        <mxCell id="43l0I3eRNdwmV9ZVuamb-20" value="" style="shape=corner;whiteSpace=wrap;html=1;direction=north;dx=120;dy=160;fillColor=#d0cee2;strokeColor=none;align=center;" parent="1" vertex="1">
          <mxGeometry x="2819.5" y="210" width="340" height="480" as="geometry" />
        </mxCell>
        <mxCell id="43l0I3eRNdwmV9ZVuamb-21" value="Supporting" style="text;html=1;strokeColor=none;fillColor=none;align=center;verticalAlign=middle;whiteSpace=wrap;rounded=0;fontStyle=1;fontColor=#808080;fontSize=18;" parent="1" vertex="1">
          <mxGeometry x="3013.75" y="620" width="60" height="30" as="geometry" />
        </mxCell>
        <mxCell id="43l0I3eRNdwmV9ZVuamb-22" value="Core" style="rounded=0;whiteSpace=wrap;html=1;fillColor=#d5e8d4;strokeColor=none;fontSize=18;fontColor=#808080;fontStyle=1" parent="1" vertex="1">
          <mxGeometry x="2978.25" y="210" width="181.25" height="360" as="geometry" />
        </mxCell>
        <mxCell id="43l0I3eRNdwmV9ZVuamb-23" value="" style="verticalLabelPosition=bottom;verticalAlign=top;html=1;shape=mxgraph.basic.rounded_frame;dx=3;whiteSpace=wrap;strokeColor=#000000;fillColor=#000000;" parent="1" vertex="1">
          <mxGeometry x="1827.38" y="210" width="422.62" height="420" as="geometry" />
        </mxCell>
        <mxCell id="43l0I3eRNdwmV9ZVuamb-25" value="Core" style="shape=note;size=20;whiteSpace=wrap;html=1;fillColor=#d5e8d4;strokeColor=#82b366;" parent="1" vertex="1">
          <mxGeometry x="1670" y="240" width="100" height="100" as="geometry" />
        </mxCell>
        <mxCell id="43l0I3eRNdwmV9ZVuamb-26" value="Supporting" style="shape=note;size=20;whiteSpace=wrap;html=1;fillColor=#d0cee2;strokeColor=#56517e;" parent="1" vertex="1">
          <mxGeometry x="1670" y="367.5" width="100" height="100" as="geometry" />
        </mxCell>
        <mxCell id="43l0I3eRNdwmV9ZVuamb-27" value="Generic" style="shape=note;size=20;whiteSpace=wrap;html=1;fillColor=#bac8d3;strokeColor=#23445d;" parent="1" vertex="1">
          <mxGeometry x="1670" y="500" width="100" height="100" as="geometry" />
        </mxCell>
        <mxCell id="43l0I3eRNdwmV9ZVuamb-30" value="" style="ellipse;whiteSpace=wrap;html=1;aspect=fixed;spacing=2;strokeWidth=2;strokeColor=#FFFFFF;fillColor=#a0522d;fontColor=#ffffff;" parent="1" vertex="1">
          <mxGeometry x="3109.5" y="360" width="35" height="35" as="geometry" />
        </mxCell>
        <mxCell id="6jMr6Txyks8FX9mSCWgc-77" style="edgeStyle=orthogonalEdgeStyle;rounded=0;orthogonalLoop=1;jettySize=auto;html=1;exitX=1;exitY=0.5;exitDx=0;exitDy=0;entryX=0;entryY=0.5;entryDx=0;entryDy=0;" parent="1" source="43l0I3eRNdwmV9ZVuamb-67" target="6jMr6Txyks8FX9mSCWgc-51" edge="1">
          <mxGeometry relative="1" as="geometry" />
        </mxCell>
        <mxCell id="43l0I3eRNdwmV9ZVuamb-67" value="" style="rounded=1;whiteSpace=wrap;html=1;fillColor=#d0cee2;strokeColor=#56517e;" parent="1" vertex="1">
          <mxGeometry x="2080" y="1720" width="399.75" height="200" as="geometry" />
        </mxCell>
        <mxCell id="43l0I3eRNdwmV9ZVuamb-70" value="" style="rounded=1;whiteSpace=wrap;html=1;fillColor=#d5e8d4;strokeColor=#82b366;" parent="1" vertex="1">
          <mxGeometry x="1680" y="1260" width="402.62" height="200" as="geometry" />
        </mxCell>
        <mxCell id="6jMr6Txyks8FX9mSCWgc-83" style="edgeStyle=orthogonalEdgeStyle;rounded=0;orthogonalLoop=1;jettySize=auto;html=1;exitX=0;exitY=0.5;exitDx=0;exitDy=0;exitPerimeter=0;" parent="1" source="43l0I3eRNdwmV9ZVuamb-90" target="6jMr6Txyks8FX9mSCWgc-49" edge="1">
          <mxGeometry relative="1" as="geometry">
            <Array as="points">
              <mxPoint x="1865" y="1360" />
              <mxPoint x="1865" y="1360" />
            </Array>
          </mxGeometry>
        </mxCell>
        <mxCell id="43l0I3eRNdwmV9ZVuamb-90" value="Разработка методик тестирования и тестов" style="shape=note;size=20;whiteSpace=wrap;html=1;" parent="1" vertex="1">
          <mxGeometry x="1735" y="1310" width="100" height="100" as="geometry" />
        </mxCell>
        <mxCell id="6jMr6Txyks8FX9mSCWgc-1" value="&lt;b&gt;Основная цель&lt;/b&gt;: уменьшение посторонней работы котов-тестировщиков&lt;br&gt;&lt;b&gt;Решение&lt;/b&gt;: делегирование рутинной работы специально обученным котам-воркерам" style="text;html=1;strokeColor=none;fillColor=none;align=left;verticalAlign=top;whiteSpace=wrap;rounded=0;" parent="1" vertex="1">
          <mxGeometry x="1790.25" y="50" width="480" height="40" as="geometry" />
        </mxCell>
        <mxCell id="6jMr6Txyks8FX9mSCWgc-2" value="Подбор персонала под задачу" style="shape=note;size=20;whiteSpace=wrap;html=1;fillColor=#d5e8d4;strokeColor=#82b366;" parent="1" vertex="1">
          <mxGeometry x="1988.94" y="240" width="100" height="100" as="geometry" />
        </mxCell>
        <mxCell id="6jMr6Txyks8FX9mSCWgc-3" value="Увеличение скорости обслуживания" style="shape=note;size=20;whiteSpace=wrap;html=1;fillColor=#d0cee2;strokeColor=#56517e;" parent="1" vertex="1">
          <mxGeometry x="1859.88" y="370" width="100" height="100" as="geometry" />
        </mxCell>
        <mxCell id="6jMr6Txyks8FX9mSCWgc-4" value="Повышение мотивации менеджеров" style="shape=note;size=20;whiteSpace=wrap;html=1;fillColor=#d0cee2;strokeColor=#56517e;" parent="1" vertex="1">
          <mxGeometry x="1990" y="370" width="100" height="100" as="geometry" />
        </mxCell>
        <mxCell id="6jMr6Txyks8FX9mSCWgc-5" value="Повышение лояльности клиентов" style="shape=note;size=20;whiteSpace=wrap;html=1;fillColor=#bac8d3;strokeColor=#23445d;" parent="1" vertex="1">
          <mxGeometry x="1990" y="500" width="100" height="100" as="geometry" />
        </mxCell>
        <mxCell id="6jMr6Txyks8FX9mSCWgc-6" value="Менеджмент заказов" style="shape=note;size=20;whiteSpace=wrap;html=1;fillColor=#bac8d3;strokeColor=#23445d;" parent="1" vertex="1">
          <mxGeometry x="1859.88" y="500" width="100" height="100" as="geometry" />
        </mxCell>
        <mxCell id="6jMr6Txyks8FX9mSCWgc-14" value="" style="ellipse;whiteSpace=wrap;html=1;aspect=fixed;strokeWidth=2;strokeColor=#FFFFFF;fillColor=#e51400;fontColor=#ffffff;" parent="1" vertex="1">
          <mxGeometry x="2999.5" y="330" width="35" height="35" as="geometry" />
        </mxCell>
        <mxCell id="6jMr6Txyks8FX9mSCWgc-15" value="Найм персонала" style="text;html=1;strokeColor=none;fillColor=none;align=center;verticalAlign=middle;whiteSpace=wrap;rounded=0;" parent="1" vertex="1">
          <mxGeometry x="2964.87" y="300" width="104.25" height="30" as="geometry" />
        </mxCell>
        <mxCell id="6jMr6Txyks8FX9mSCWgc-17" value="Low" style="text;html=1;strokeColor=none;fillColor=none;align=center;verticalAlign=middle;whiteSpace=wrap;rounded=0;" parent="1" vertex="1">
          <mxGeometry x="2661.75" y="690" width="60" height="30" as="geometry" />
        </mxCell>
        <mxCell id="6jMr6Txyks8FX9mSCWgc-18" value="" style="endArrow=none;dashed=1;html=1;rounded=0;" parent="1" edge="1">
          <mxGeometry width="50" height="50" relative="1" as="geometry">
            <mxPoint x="2899.5" y="700" as="sourcePoint" />
            <mxPoint x="2899.5" y="190" as="targetPoint" />
          </mxGeometry>
        </mxCell>
        <mxCell id="6jMr6Txyks8FX9mSCWgc-19" value="" style="endArrow=none;dashed=1;html=1;rounded=0;exitX=0;exitY=0.5;exitDx=0;exitDy=0;" parent="1" source="43l0I3eRNdwmV9ZVuamb-19" edge="1">
          <mxGeometry width="50" height="50" relative="1" as="geometry">
            <mxPoint x="2789.5" y="450" as="sourcePoint" />
            <mxPoint x="3179.5" y="450" as="targetPoint" />
          </mxGeometry>
        </mxCell>
        <mxCell id="6jMr6Txyks8FX9mSCWgc-20" value="" style="ellipse;whiteSpace=wrap;html=1;aspect=fixed;strokeWidth=2;strokeColor=#FFFFFF;fillColor=#e51400;fontColor=#ffffff;" parent="1" vertex="1">
          <mxGeometry x="3073.75" y="270" width="35" height="35" as="geometry" />
        </mxCell>
        <mxCell id="6jMr6Txyks8FX9mSCWgc-21" value="Подбор персонала под задачу" style="text;html=1;strokeColor=none;fillColor=none;align=center;verticalAlign=middle;whiteSpace=wrap;rounded=0;" parent="1" vertex="1">
          <mxGeometry x="3025.25" y="230" width="119.25" height="30" as="geometry" />
        </mxCell>
        <mxCell id="6jMr6Txyks8FX9mSCWgc-22" value="Выполнение заказа" style="shape=note;size=20;whiteSpace=wrap;html=1;fillColor=#bac8d3;strokeColor=#23445d;" parent="1" vertex="1">
          <mxGeometry x="2110" y="500" width="100" height="100" as="geometry" />
        </mxCell>
        <mxCell id="6jMr6Txyks8FX9mSCWgc-23" value="Выполнение заказа" style="text;html=1;strokeColor=none;fillColor=none;align=center;verticalAlign=middle;whiteSpace=wrap;rounded=0;" parent="1" vertex="1">
          <mxGeometry x="3079.5" y="330" width="124.25" height="30" as="geometry" />
        </mxCell>
        <mxCell id="6jMr6Txyks8FX9mSCWgc-24" value="" style="ellipse;whiteSpace=wrap;html=1;aspect=fixed;spacing=2;strokeWidth=2;strokeColor=#FFFFFF;direction=south;fillColor=#e51400;fontColor=#ffffff;" parent="1" vertex="1">
          <mxGeometry x="2888.38" y="532.5" width="35" height="35" as="geometry" />
        </mxCell>
        <mxCell id="6jMr6Txyks8FX9mSCWgc-25" value="Повышение мотивации менеджеров" style="text;html=1;strokeColor=none;fillColor=none;align=center;verticalAlign=middle;whiteSpace=wrap;rounded=0;" parent="1" vertex="1">
          <mxGeometry x="2909.5" y="500" width="138.88" height="30" as="geometry" />
        </mxCell>
        <mxCell id="6jMr6Txyks8FX9mSCWgc-26" value="" style="ellipse;whiteSpace=wrap;html=1;aspect=fixed;spacing=2;strokeWidth=2;strokeColor=#FFFFFF;fillColor=#e51400;fontColor=#ffffff;" parent="1" vertex="1">
          <mxGeometry x="2819.5" y="577" width="35" height="35" as="geometry" />
        </mxCell>
        <mxCell id="6jMr6Txyks8FX9mSCWgc-28" value="Увеличение скорости обслуживания" style="text;html=1;strokeColor=none;fillColor=none;align=center;verticalAlign=middle;whiteSpace=wrap;rounded=0;" parent="1" vertex="1">
          <mxGeometry x="2749.5" y="620" width="138.88" height="30" as="geometry" />
        </mxCell>
        <mxCell id="6jMr6Txyks8FX9mSCWgc-29" value="" style="ellipse;whiteSpace=wrap;html=1;aspect=fixed;spacing=2;strokeWidth=2;strokeColor=#FFFFFF;direction=south;fillColor=#60a917;fontColor=#ffffff;" parent="1" vertex="1">
          <mxGeometry x="2674.25" y="510" width="35" height="35" as="geometry" />
        </mxCell>
        <mxCell id="6jMr6Txyks8FX9mSCWgc-30" value="Повышение&amp;nbsp; лояльности клиентов" style="text;html=1;strokeColor=none;fillColor=none;align=center;verticalAlign=middle;whiteSpace=wrap;rounded=0;" parent="1" vertex="1">
          <mxGeometry x="2661.75" y="550" width="140" height="30" as="geometry" />
        </mxCell>
        <mxCell id="6jMr6Txyks8FX9mSCWgc-31" value="" style="ellipse;whiteSpace=wrap;html=1;aspect=fixed;spacing=2;strokeWidth=2;strokeColor=#FFFFFF;direction=south;fillColor=#e51400;fontColor=#ffffff;" parent="1" vertex="1">
          <mxGeometry x="2674.25" y="240" width="35" height="35" as="geometry" />
        </mxCell>
        <mxCell id="6jMr6Txyks8FX9mSCWgc-32" value="Менеджмент заказов" style="text;html=1;strokeColor=none;fillColor=none;align=center;verticalAlign=middle;whiteSpace=wrap;rounded=0;" parent="1" vertex="1">
          <mxGeometry x="2699.75" y="215" width="129.75" height="30" as="geometry" />
        </mxCell>
        <mxCell id="6jMr6Txyks8FX9mSCWgc-33" value="" style="ellipse;whiteSpace=wrap;html=1;aspect=fixed;spacing=2;strokeWidth=2;strokeColor=#FFFFFF;direction=south;fillColor=#e51400;fontColor=#ffffff;" parent="1" vertex="1">
          <mxGeometry x="2329.75" y="242.5" width="35" height="35" as="geometry" />
        </mxCell>
        <mxCell id="6jMr6Txyks8FX9mSCWgc-34" value="Поддомен" style="text;html=1;strokeColor=none;fillColor=none;align=left;verticalAlign=middle;whiteSpace=wrap;rounded=0;" parent="1" vertex="1">
          <mxGeometry x="2370" y="242.5" width="129.75" height="30" as="geometry" />
        </mxCell>
        <mxCell id="6jMr6Txyks8FX9mSCWgc-37" value="" style="ellipse;whiteSpace=wrap;html=1;aspect=fixed;spacing=2;strokeWidth=2;strokeColor=#FFFFFF;fillColor=#a0522d;fontColor=#ffffff;" parent="1" vertex="1">
          <mxGeometry x="2329.75" y="300" width="35" height="35" as="geometry" />
        </mxCell>
        <mxCell id="6jMr6Txyks8FX9mSCWgc-38" value="Не задача нашей системы" style="text;html=1;strokeColor=none;fillColor=none;align=left;verticalAlign=middle;whiteSpace=wrap;rounded=0;" parent="1" vertex="1">
          <mxGeometry x="2370" y="302.5" width="129.75" height="30" as="geometry" />
        </mxCell>
        <mxCell id="6jMr6Txyks8FX9mSCWgc-39" value="" style="ellipse;whiteSpace=wrap;html=1;aspect=fixed;spacing=2;strokeWidth=2;strokeColor=#FFFFFF;direction=south;fillColor=#60a917;fontColor=#ffffff;" parent="1" vertex="1">
          <mxGeometry x="2329.75" y="360" width="35" height="35" as="geometry" />
        </mxCell>
        <mxCell id="6jMr6Txyks8FX9mSCWgc-40" value="Покупаем у подрядчика" style="text;html=1;strokeColor=none;fillColor=none;align=left;verticalAlign=middle;whiteSpace=wrap;rounded=0;" parent="1" vertex="1">
          <mxGeometry x="2370" y="360" width="129.75" height="30" as="geometry" />
        </mxCell>
        <mxCell id="6jMr6Txyks8FX9mSCWgc-42" value="Найм персонала" style="text;html=1;strokeColor=none;fillColor=none;align=center;verticalAlign=middle;whiteSpace=wrap;rounded=0;" parent="1" vertex="1">
          <mxGeometry x="1829.1899999999996" y="1260" width="104.25" height="30" as="geometry" />
        </mxCell>
        <mxCell id="6jMr6Txyks8FX9mSCWgc-43" value="Подбор персонала под задачу" style="text;html=1;strokeColor=none;fillColor=none;align=center;verticalAlign=middle;whiteSpace=wrap;rounded=0;" parent="1" vertex="1">
          <mxGeometry x="2322.87" y="850" width="119.25" height="30" as="geometry" />
        </mxCell>
        <mxCell id="6jMr6Txyks8FX9mSCWgc-44" value="Повышение мотивации менеджеров" style="text;html=1;strokeColor=none;fillColor=none;align=center;verticalAlign=middle;whiteSpace=wrap;rounded=0;" parent="1" vertex="1">
          <mxGeometry x="2953.31" y="1730" width="138.88" height="30" as="geometry" />
        </mxCell>
        <mxCell id="6jMr6Txyks8FX9mSCWgc-45" value="Увеличение скорости обслуживания" style="text;html=1;strokeColor=none;fillColor=none;align=center;verticalAlign=middle;whiteSpace=wrap;rounded=0;" parent="1" vertex="1">
          <mxGeometry x="2101.12" y="1730" width="138.88" height="30" as="geometry" />
        </mxCell>
        <mxCell id="6jMr6Txyks8FX9mSCWgc-46" value="Повышение&amp;nbsp; лояльности клиентов" style="text;html=1;strokeColor=none;fillColor=none;align=center;verticalAlign=middle;whiteSpace=wrap;rounded=0;" parent="1" vertex="1">
          <mxGeometry x="2632.13" y="1730" width="140" height="30" as="geometry" />
        </mxCell>
        <mxCell id="6jMr6Txyks8FX9mSCWgc-47" value="Менеджмент заказов" style="text;html=1;strokeColor=none;fillColor=none;align=center;verticalAlign=middle;whiteSpace=wrap;rounded=0;" parent="1" vertex="1">
          <mxGeometry x="2629.75" y="1169" width="129.75" height="30" as="geometry" />
        </mxCell>
        <mxCell id="6jMr6Txyks8FX9mSCWgc-49" value="Система для отбора воркеров" style="shape=note;size=20;whiteSpace=wrap;html=1;" parent="1" vertex="1">
          <mxGeometry x="1927.62" y="1310" width="100" height="100" as="geometry" />
        </mxCell>
        <mxCell id="6jMr6Txyks8FX9mSCWgc-50" value="Сборка расходников&amp;nbsp; для заказа" style="shape=note;size=20;whiteSpace=wrap;html=1;" parent="1" vertex="1">
          <mxGeometry x="2329.88" y="1780" width="100" height="100" as="geometry" />
        </mxCell>
        <mxCell id="6jMr6Txyks8FX9mSCWgc-53" value="Производство печенья" style="shape=note;size=20;whiteSpace=wrap;html=1;" parent="1" vertex="1">
          <mxGeometry x="2649.5" y="1780" width="100" height="100" as="geometry" />
        </mxCell>
        <mxCell id="6jMr6Txyks8FX9mSCWgc-56" value="Умный матчинг воркеров под клиента и заказ" style="shape=note;size=20;whiteSpace=wrap;html=1;" parent="1" vertex="1">
          <mxGeometry x="2332.5" y="890" width="100" height="100" as="geometry" />
        </mxCell>
        <mxCell id="6jMr6Txyks8FX9mSCWgc-59" value="Система ставок для менеджеров" style="shape=note;size=20;whiteSpace=wrap;html=1;" parent="1" vertex="1">
          <mxGeometry x="2970.13" y="1780" width="100" height="100" as="geometry" />
        </mxCell>
        <mxCell id="6jMr6Txyks8FX9mSCWgc-70" style="edgeStyle=orthogonalEdgeStyle;rounded=0;orthogonalLoop=1;jettySize=auto;html=1;exitX=0.5;exitY=0;exitDx=0;exitDy=0;exitPerimeter=0;entryX=0.5;entryY=1;entryDx=0;entryDy=0;" parent="1" source="6jMr6Txyks8FX9mSCWgc-62" target="6jMr6Txyks8FX9mSCWgc-54" edge="1">
          <mxGeometry relative="1" as="geometry" />
        </mxCell>
        <mxCell id="6jMr6Txyks8FX9mSCWgc-71" style="edgeStyle=orthogonalEdgeStyle;rounded=0;orthogonalLoop=1;jettySize=auto;html=1;exitX=0;exitY=0;exitDx=100;exitDy=60;exitPerimeter=0;entryX=0;entryY=0.5;entryDx=0;entryDy=0;entryPerimeter=0;" parent="1" source="6jMr6Txyks8FX9mSCWgc-62" target="6jMr6Txyks8FX9mSCWgc-63" edge="1">
          <mxGeometry relative="1" as="geometry" />
        </mxCell>
        <mxCell id="6jMr6Txyks8FX9mSCWgc-73" style="edgeStyle=orthogonalEdgeStyle;rounded=0;orthogonalLoop=1;jettySize=auto;html=1;exitX=0;exitY=0;exitDx=100;exitDy=60;exitPerimeter=0;entryX=0;entryY=0.5;entryDx=0;entryDy=0;entryPerimeter=0;" parent="1" source="6jMr6Txyks8FX9mSCWgc-62" target="6jMr6Txyks8FX9mSCWgc-67" edge="1">
          <mxGeometry relative="1" as="geometry">
            <Array as="points">
              <mxPoint x="2430" y="1380" />
              <mxPoint x="2676" y="1380" />
              <mxPoint x="2676" y="1250" />
            </Array>
          </mxGeometry>
        </mxCell>
        <mxCell id="6jMr6Txyks8FX9mSCWgc-74" style="edgeStyle=orthogonalEdgeStyle;rounded=0;orthogonalLoop=1;jettySize=auto;html=1;exitX=0;exitY=0;exitDx=100;exitDy=60;exitPerimeter=0;entryX=0;entryY=0.5;entryDx=0;entryDy=0;entryPerimeter=0;" parent="1" source="6jMr6Txyks8FX9mSCWgc-62" target="6jMr6Txyks8FX9mSCWgc-68" edge="1">
          <mxGeometry relative="1" as="geometry">
            <Array as="points">
              <mxPoint x="2430" y="1390" />
              <mxPoint x="2971" y="1390" />
            </Array>
          </mxGeometry>
        </mxCell>
        <mxCell id="6jMr6Txyks8FX9mSCWgc-75" style="edgeStyle=orthogonalEdgeStyle;rounded=0;orthogonalLoop=1;jettySize=auto;html=1;exitX=0.5;exitY=1;exitDx=0;exitDy=0;exitPerimeter=0;" parent="1" source="6jMr6Txyks8FX9mSCWgc-62" target="6jMr6Txyks8FX9mSCWgc-50" edge="1">
          <mxGeometry relative="1" as="geometry">
            <mxPoint x="2380" y="1740" as="targetPoint" />
            <Array as="points" />
          </mxGeometry>
        </mxCell>
        <mxCell id="6jMr6Txyks8FX9mSCWgc-78" style="edgeStyle=orthogonalEdgeStyle;rounded=0;orthogonalLoop=1;jettySize=auto;html=1;exitX=0.5;exitY=1;exitDx=0;exitDy=0;exitPerimeter=0;entryX=0.5;entryY=0;entryDx=0;entryDy=0;" parent="1" source="6jMr6Txyks8FX9mSCWgc-62" target="6jMr6Txyks8FX9mSCWgc-57" edge="1">
          <mxGeometry relative="1" as="geometry">
            <mxPoint x="3023" y="1720" as="targetPoint" />
            <Array as="points">
              <mxPoint x="2400" y="1410" />
              <mxPoint x="2400" y="1640" />
              <mxPoint x="3020" y="1640" />
            </Array>
          </mxGeometry>
        </mxCell>
        <mxCell id="6jMr6Txyks8FX9mSCWgc-62" value="Обработка заказов" style="shape=note;size=20;whiteSpace=wrap;html=1;" parent="1" vertex="1">
          <mxGeometry x="2329.88" y="1310" width="100" height="100" as="geometry" />
        </mxCell>
        <mxCell id="6jMr6Txyks8FX9mSCWgc-63" value="Контроль качества работы воркеров" style="shape=note;size=20;whiteSpace=wrap;html=1;" parent="1" vertex="1">
          <mxGeometry x="2504.25" y="1210" width="100" height="100" as="geometry" />
        </mxCell>
        <mxCell id="6jMr6Txyks8FX9mSCWgc-67" value="Расчет и списание оплаты услуг с клиентов" style="shape=note;size=20;whiteSpace=wrap;html=1;" parent="1" vertex="1">
          <mxGeometry x="2921.38" y="1200" width="100" height="100" as="geometry" />
        </mxCell>
        <mxCell id="6jMr6Txyks8FX9mSCWgc-68" value="Расчет и выплата зп воркерам" style="shape=note;size=20;whiteSpace=wrap;html=1;" parent="1" vertex="1">
          <mxGeometry x="2921.38" y="1420" width="100" height="100" as="geometry" />
        </mxCell>
        <mxCell id="6jMr6Txyks8FX9mSCWgc-69" style="edgeStyle=orthogonalEdgeStyle;rounded=0;orthogonalLoop=1;jettySize=auto;html=1;entryX=0;entryY=0.5;entryDx=0;entryDy=0;entryPerimeter=0;exitX=0.993;exitY=0.499;exitDx=0;exitDy=0;exitPerimeter=0;" parent="1" source="6jMr6Txyks8FX9mSCWgc-49" target="6jMr6Txyks8FX9mSCWgc-62" edge="1">
          <mxGeometry relative="1" as="geometry">
            <mxPoint x="2030" y="1360" as="sourcePoint" />
            <Array as="points" />
          </mxGeometry>
        </mxCell>
        <mxCell id="6jMr6Txyks8FX9mSCWgc-82" style="edgeStyle=orthogonalEdgeStyle;rounded=0;orthogonalLoop=1;jettySize=auto;html=1;exitX=0;exitY=0.5;exitDx=0;exitDy=0;exitPerimeter=0;entryX=0;entryY=0.5;entryDx=0;entryDy=0;entryPerimeter=0;" parent="1" source="6jMr6Txyks8FX9mSCWgc-80" target="6jMr6Txyks8FX9mSCWgc-50" edge="1">
          <mxGeometry relative="1" as="geometry">
            <Array as="points">
              <mxPoint x="2260" y="1830" />
              <mxPoint x="2260" y="1830" />
            </Array>
          </mxGeometry>
        </mxCell>
        <mxCell id="6jMr6Txyks8FX9mSCWgc-80" value="Закупка и хранение расходников" style="shape=note;size=20;whiteSpace=wrap;html=1;" parent="1" vertex="1">
          <mxGeometry x="2140" y="1780" width="100" height="100" as="geometry" />
        </mxCell>
        <mxCell id="43l0I3eRNdwmV9ZVuamb-12" value="" style="endArrow=classic;html=1;rounded=0;strokeWidth=2;" parent="1" edge="1">
          <mxGeometry width="50" height="50" relative="1" as="geometry">
            <mxPoint x="2661.75" y="690" as="sourcePoint" />
            <mxPoint x="3181.75" y="690" as="targetPoint" />
          </mxGeometry>
        </mxCell>
        <mxCell id="43l0I3eRNdwmV9ZVuamb-11" value="" style="endArrow=classic;html=1;rounded=0;strokeWidth=2;" parent="1" edge="1">
          <mxGeometry width="50" height="50" relative="1" as="geometry">
            <mxPoint x="2662" y="690" as="sourcePoint" />
            <mxPoint x="2661.75" y="180" as="targetPoint" />
          </mxGeometry>
        </mxCell>
      </root>
    </mxGraphModel>
  </diagram>
</mxfile>
